# Blender v2.80 (sub 75) OBJ File: 'Cenicero.blend'
# www.blender.org
mtllib Carpeta.mtl
o Carpeta_Cube.001
v -0.769578 -0.009065 -0.549055
v -0.769578 -0.002049 -0.556070
v -0.776594 -0.002049 -0.549055
v -0.769578 0.014006 -0.556070
v -0.769578 0.021021 -0.549055
v -0.776594 0.014006 -0.549055
v -0.769578 -0.009065 0.549055
v -0.776594 -0.002049 0.549055
v -0.769578 -0.002049 0.556070
v -0.769578 0.021021 0.549055
v -0.769578 0.014006 0.556070
v -0.776594 0.014006 0.549055
v 0.769578 -0.009065 -0.549055
v 0.776594 -0.002049 -0.549055
v 0.769578 -0.002049 -0.556070
v 0.769578 0.021021 -0.549055
v 0.769578 0.014006 -0.556070
v 0.776594 0.014006 -0.549055
v 0.769578 -0.009065 0.549055
v 0.769578 -0.002049 0.556070
v 0.776594 -0.002049 0.549055
v 0.769578 0.021021 0.549055
v 0.776594 0.014006 0.549055
v 0.769578 0.014006 0.556070
v -0.233801 -0.009065 0.549055
v -0.634756 -0.009065 0.549055
v -0.634756 -0.002049 0.556070
v -0.233801 -0.002049 0.556070
v -0.634756 0.021021 0.549055
v -0.233801 0.021021 0.549055
v -0.233801 0.014006 0.556070
v -0.634756 0.014006 0.556070
v -0.634756 -0.003394 -0.561605
v -0.634756 -0.009065 -0.549055
v -0.233801 -0.003394 -0.561605
v -0.233801 -0.009065 -0.549055
v -0.228131 -0.002049 -0.556070
v -0.233801 -0.002049 -0.562904
v -0.634756 -0.002049 -0.562904
v -0.640427 -0.002049 -0.556070
v -0.233801 0.015350 -0.561605
v -0.233801 0.021021 -0.549055
v -0.634756 0.015350 -0.561605
v -0.634756 0.021021 -0.549055
v -0.640427 0.014006 -0.556070
v -0.634756 0.014006 -0.562904
v -0.233801 0.014006 -0.562904
v -0.228131 0.014006 -0.556070
v -0.634756 -0.003394 -0.596646
v -0.629085 -0.009065 -0.597854
v -0.233801 -0.003394 -0.596646
v -0.239472 -0.009065 -0.597854
v -0.233801 -0.002049 -0.598036
v -0.239472 -0.002049 -0.604870
v -0.629085 -0.002049 -0.604870
v -0.634756 -0.002049 -0.598036
v -0.233801 0.015350 -0.596646
v -0.239472 0.021021 -0.597854
v -0.634756 0.015350 -0.596646
v -0.629085 0.021021 -0.597854
v -0.634756 0.014006 -0.598036
v -0.629085 0.014006 -0.604870
v -0.239472 0.014006 -0.604870
v -0.233801 0.014006 -0.598036
vt 0.566705 0.977170
vt 0.566705 0.977170
vt 0.433295 0.977170
vt 0.433295 0.977170
vt 0.433295 0.501577
vt 0.433295 0.748423
vt 0.566705 0.748423
vt 0.566705 0.501577
vt 0.148743 0.748423
vt 0.148743 0.750000
vt 0.211455 0.750000
vt 0.211455 0.748423
vt 0.433295 0.001577
vt 0.433295 0.248423
vt 0.566705 0.248423
vt 0.566705 0.001577
vt 0.433295 0.337367
vt 0.433295 0.498871
vt 0.566705 0.498871
vt 0.566705 0.337368
vt 0.126129 0.748423
vt 0.125000 0.748423
vt 0.126129 0.750000
vt 0.566705 0.998871
vt 0.566705 1.000000
vt 0.625000 0.998871
vt 0.126129 0.501577
vt 0.126129 0.500000
vt 0.125000 0.501577
vt 0.873871 0.501577
vt 0.875000 0.501577
vt 0.873871 0.500000
vt 0.373871 0.748423
vt 0.373871 0.750000
vt 0.375000 0.748423
vt 0.626129 0.748423
vt 0.625000 0.748423
vt 0.626129 0.750000
vt 0.373871 0.501577
vt 0.375000 0.501577
vt 0.373871 0.500000
vt 0.626129 0.501577
vt 0.626129 0.500000
vt 0.625000 0.501577
vt 0.433295 0.998871
vt 0.433295 1.000000
vt 0.873871 0.748423
vt 0.875000 0.748423
vt 0.566705 0.251129
vt 0.433295 0.251129
vt 0.147830 0.501577
vt 0.147830 0.500000
vt 0.787633 0.501577
vt 0.787632 0.500000
vt 0.566705 0.751129
vt 0.433295 0.751129
vt 0.433295 0.911720
vt 0.566705 0.911720
vt 0.852170 0.749698
vt 0.852170 0.749698
vt 0.852170 0.750000
vt 0.852170 0.750000
vt 0.212368 0.749698
vt 0.212368 0.749698
vt 0.212367 0.750000
vt 0.212367 0.750000
vt 0.787633 0.748423
vt 0.852170 0.748423
vt 0.852170 0.501577
vt 0.433295 0.978083
vt 0.566705 0.978083
vt 0.147830 0.750000
vt 0.147830 0.750000
vt 0.147830 0.749698
vt 0.147830 0.749698
vt 0.212368 0.748423
vt 0.213280 0.750000
vt 0.852170 0.500000
vt 0.212368 0.500000
vt 0.212368 0.501577
vt 0.433295 0.272830
vt 0.566705 0.272830
vt 0.788545 0.748423
vt 0.851257 0.748423
vt 0.853083 0.750000
vt 0.873871 0.750000
vt 0.433295 0.912632
vt 0.433295 0.912632
vt 0.566705 0.912632
vt 0.566705 0.912632
vt 0.786720 0.750000
vt 0.433295 0.913545
vt 0.433295 0.976257
vt 0.566705 0.976257
vt 0.566705 0.913545
vt 0.788545 0.750000
vt 0.851257 0.750000
vt 0.787632 0.750000
vt 0.787632 0.750000
vt 0.787632 0.749698
vt 0.787632 0.749698
vt 0.147830 0.748423
vt 0.146917 0.750000
vn -1.0000 0.0000 0.0000
vn 1.0000 0.0000 0.0000
vn 0.0000 -0.7071 -0.7071
vn 0.0000 0.0000 1.0000
vn -0.5774 -0.5773 -0.5773
vn -0.5774 0.5773 -0.5773
vn -0.5774 -0.5773 0.5773
vn -0.5774 0.5773 0.5773
vn 0.5774 -0.5773 -0.5773
vn 0.5774 0.5773 -0.5773
vn 0.5774 -0.5773 0.5773
vn 0.5774 0.5773 0.5773
vn -0.7071 -0.7071 0.0000
vn -0.7071 0.0000 -0.7071
vn -0.7071 0.7071 0.0000
vn -0.7071 0.0000 0.7071
vn 0.0000 -0.7071 0.7071
vn 0.0000 0.7071 0.7071
vn 0.7071 0.0000 0.7071
vn 0.7071 -0.7071 0.0000
vn 0.7071 0.7071 0.0000
vn 0.7071 0.0000 -0.7071
vn 0.0000 0.0000 -1.0000
vn 0.0000 1.0000 0.0000
vn 0.0000 0.7071 -0.7071
vn 0.8682 0.4928 -0.0587
vn 0.5465 0.7471 -0.3784
vn -0.5465 0.7471 -0.3784
vn -0.5465 -0.7471 -0.3784
vn 0.5465 -0.7471 -0.3784
vn 0.7696 0.0000 -0.6386
vn -0.7696 0.0000 -0.6386
vn 0.6497 0.5390 -0.5361
vn -0.6497 0.5390 -0.5361
vn -0.6497 -0.5390 -0.5361
vn 0.6497 -0.5390 -0.5361
vn 0.8682 -0.4928 -0.0587
vn -0.8682 0.4928 -0.0587
vn -0.8682 -0.4928 -0.0587
usemtl None
s off
f 46/1/1 61/2/1 56/3/1 39/4/1
f 21/5/2 14/6/2 18/7/2 23/8/2
f 50/9/3 55/10/3 54/11/3 52/12/3
f 3/13/1 8/14/1 12/15/1 6/16/1
f 28/17/4 20/18/4 24/19/4 31/20/4
f 1/21/5 3/22/5 2/23/5
f 4/24/6 6/25/6 5/26/6
f 7/27/7 9/28/7 8/29/7
f 10/30/8 12/31/8 11/32/8
f 13/33/9 15/34/9 14/35/9
f 16/36/10 18/37/10 17/38/10
f 19/39/11 21/40/11 20/41/11
f 22/42/12 24/43/12 23/44/12
f 7/27/13 8/29/13 3/22/13 1/21/13
f 2/45/14 3/46/14 6/25/14 4/24/14
f 5/47/15 6/48/15 12/31/15 10/30/15
f 11/49/16 12/15/16 8/14/16 9/50/16
f 26/51/17 27/52/17 9/28/17 7/27/17
f 30/53/18 31/54/18 24/43/18 22/42/18
f 23/8/19 24/19/19 20/18/19 21/5/19
f 13/33/20 14/6/20 21/5/20 19/39/20
f 22/42/21 23/8/21 18/7/21 16/36/21
f 17/55/22 18/7/22 14/6/22 15/56/22
f 15/56/23 37/57/23 48/58/23 17/55/23
f 43/59/1 59/60/1 61/61/1 46/62/1
f 35/63/2 51/64/2 53/65/2 38/66/2
f 30/53/24 42/67/24 44/68/24 29/69/24
f 40/70/23 2/45/23 4/24/23 45/71/23
f 39/72/1 56/73/1 49/74/1 33/75/1
f 36/76/3 37/77/3 15/34/3 13/33/3
f 10/30/18 11/32/18 32/78/18 29/69/18
f 29/69/18 32/78/18 31/54/18 30/53/18
f 19/39/17 20/41/17 28/79/17 25/80/17
f 25/80/17 28/79/17 27/52/17 26/51/17
f 9/50/4 27/81/4 32/82/4 11/49/4
f 27/81/4 28/17/4 31/20/4 32/82/4
f 42/67/24 58/83/24 60/84/24 44/68/24
f 44/68/25 45/85/25 4/86/25 5/47/25
f 38/87/2 53/88/2 64/89/2 47/90/2
f 16/36/25 17/38/25 48/91/25 42/67/25
f 54/92/23 55/93/23 62/94/23 63/95/23
f 58/83/25 63/96/25 62/97/25 60/84/25
f 29/69/24 44/68/24 5/47/24 10/30/24
f 47/98/2 64/99/2 57/100/2 41/101/2
f 22/42/24 16/36/24 42/67/24 30/53/24
f 42/67/26 41/101/26 57/100/26 58/83/26
f 41/101/27 42/67/27 48/91/27 47/98/27
f 44/68/28 43/59/28 46/62/28 45/85/28
f 33/75/29 34/102/29 40/103/29 39/72/29
f 36/76/30 35/63/30 38/66/30 37/77/30
f 47/90/31 48/58/31 37/57/31 38/87/31
f 45/71/32 46/1/32 39/4/32 40/70/32
f 58/83/33 57/100/33 64/99/33 63/96/33
f 59/60/34 60/84/34 62/97/34 61/61/34
f 50/9/35 49/74/35 56/73/35 55/10/35
f 51/64/36 52/12/36 54/11/36 53/65/36
f 63/95/31 64/89/31 53/88/31 54/92/31
f 61/2/32 62/94/32 55/93/32 56/3/32
f 52/12/37 51/64/37 35/63/37 36/76/37
f 60/84/38 59/60/38 43/59/38 44/68/38
f 34/102/39 33/75/39 49/74/39 50/9/39
f 1/21/3 2/23/3 40/103/3 34/102/3
