# Blender v2.80 (sub 75) OBJ File: 'Marco.blend'
# www.blender.org
mtllib Marco.mtl
o Cube_Cube.001
v -0.023893 -0.499753 -0.015882
v -0.020896 0.500184 -0.008473
v -0.023964 -0.477808 0.023351
v -0.021101 0.477527 0.030430
v 0.081387 -0.483640 0.016306
v 0.077228 -0.487798 0.016166
v 0.079668 -0.491956 0.011946
v 0.085546 -0.486077 0.012147
v 0.081387 0.483640 0.016306
v 0.085546 0.486077 0.012147
v 0.079668 0.491955 0.012355
v 0.077228 0.487798 0.016456
v 0.093587 -0.495841 -0.007988
v 0.089429 -0.499991 -0.012279
v 0.093587 0.495841 -0.007988
v 0.089429 0.500007 -0.012013
v 0.089429 0.500000 0.008119
v 0.083555 0.495843 0.012335
v 0.089428 0.489959 0.012147
v 0.093587 0.495841 0.007988
v 0.089429 -0.499998 0.007853
v 0.093587 -0.495841 0.007988
v 0.089428 -0.489959 0.012147
v 0.083549 -0.495837 0.011960
v 0.071286 0.471816 0.026846
v 0.065402 0.477687 0.027075
v 0.065418 -0.477705 0.026631
v 0.071286 -0.471816 0.026846
v 0.077228 0.477758 0.026846
v 0.081387 0.483640 0.022687
v 0.077228 0.487794 0.022832
v 0.071342 0.483629 0.027054
v 0.077228 -0.477758 0.026846
v 0.071362 -0.483650 0.026646
v 0.077228 -0.487802 0.022543
v 0.081387 -0.483640 0.022687
v -0.023964 -0.499901 0.004249
v -0.023966 -0.495773 0.008455
v -0.020994 0.495845 0.015803
v -0.020967 0.500035 0.011657
v -0.023954 -0.491928 0.008497
v -0.023957 -0.487800 0.012703
v -0.021033 0.487736 0.019933
v -0.021006 0.491926 0.015787
v -0.023979 -0.487847 0.019080
v -0.023981 -0.483719 0.023286
v -0.021083 0.483499 0.030453
v -0.021056 0.487689 0.026308
vt 0.629540 0.500000
vt 0.750000 0.500000
vt 0.750000 0.707170
vt 0.629538 0.707177
vt 0.250000 0.500000
vt 0.370575 0.500000
vt 0.370578 0.707178
vt 0.250000 0.707181
vt 0.622986 0.875000
vt 0.622989 0.767104
vt 0.623961 0.761940
vt 0.623963 0.875000
vt 0.375000 0.375000
vt 0.625000 0.375000
vt 0.625000 0.495460
vt 0.375000 0.495575
vt 0.378050 0.875000
vt 0.378050 0.770587
vt 0.378050 0.770587
vt 0.378050 0.875000
vt 0.621950 0.770710
vt 0.621950 0.875000
vt 0.621950 0.875000
vt 0.621950 0.770709
vt 0.377010 0.766937
vt 0.377007 0.875000
vt 0.376043 0.875000
vt 0.376040 0.761783
vt 0.619425 0.875000
vt 0.619425 0.785851
vt 0.620909 0.778067
vt 0.620913 0.875000
vt 0.380575 0.785652
vt 0.380575 0.875000
vt 0.379093 0.875000
vt 0.379089 0.777869
vt 0.376040 0.542801
vt 0.623960 0.542801
vt 0.623960 0.707199
vt 0.376040 0.707199
vt 0.617954 0.779787
vt 0.382046 0.779787
vt 0.380560 0.771851
vt 0.619440 0.771851
vt 0.621519 0.760741
vt 0.378481 0.760741
vt 0.377510 0.755555
vt 0.622490 0.755555
vt 0.379090 0.766296
vt 0.620910 0.766296
vt 0.635941 0.750000
vt 0.629533 0.750000
vt 0.625000 0.707199
vt 0.375000 0.707199
vt 0.370576 0.750000
vt 0.364328 0.750000
vt 0.620910 0.766296
vt 0.379090 0.766296
vt 0.250012 0.750000
vt 0.750000 0.750000
vt 0.380575 0.785652
vt 0.000000 0.000000
vt 0.000000 0.000000
vt 0.000000 0.000000
vt 0.000000 0.000000
vt 0.000000 0.000000
vt 0.000000 0.000000
vt 0.000000 0.000000
vt 0.000000 0.000000
vt 0.000000 0.000000
vt 0.000000 0.000000
vt 0.000000 0.000000
vt 0.000000 0.000000
vt 0.000000 0.000000
vt 0.000000 0.000000
vt 0.000000 0.000000
vt 0.000000 0.000000
vn 0.0011 1.0000 0.0039
vn -0.0014 -1.0000 -0.0039
vn 0.0336 -0.0162 0.9993
vn 0.0003 0.0038 -1.0000
vn 0.0004 -1.0000 -0.0040
vn -0.0007 1.0000 0.0040
vn -0.0329 -0.0201 0.9993
vn 0.0377 -0.0191 0.9991
vn -0.0359 -0.0222 0.9991
vn 1.0000 0.0000 0.0000
vn -0.0000 0.0000 1.0000
vn 0.4598 -0.4851 0.7438
vn 0.4820 0.4553 0.7486
vn 0.3732 0.3454 0.8611
vn 0.3418 -0.3695 0.8641
vn 0.3740 0.3445 0.8611
vn 0.3415 -0.3702 0.8639
vn 0.7071 0.0001 -0.7071
vn 0.7067 -0.7075 -0.0001
vn 0.7074 0.7068 0.0001
vn 0.7071 0.0000 0.7071
vn -0.0230 -0.7160 0.6977
vn -0.0236 -0.7163 0.6974
vn 0.0181 -0.0156 0.9997
vn -0.0174 -0.0156 0.9997
vn -0.0238 -0.7165 0.6972
vn 0.7072 -0.7070 -0.0002
vn 0.7068 0.7074 0.0002
vn 0.0194 -0.0177 0.9997
vn -0.0183 -0.0171 0.9997
vn 0.0234 0.6992 0.7145
vn 0.0245 0.6989 0.7148
vn 0.0249 0.6986 0.7151
vn -0.0362 -0.0073 0.9993
vn 0.0388 -0.0000 0.9992
vn -1.0000 0.0030 -0.0035
usemtl None
s off
f 16/1/1 2/2/1 40/3/1 17/4/1
f 1/5/2 14/6/2 21/7/2 37/8/2
f 44/9/3 11/10/3 18/11/3 39/12/3
f 1/13/4 2/14/4 16/15/4 14/16/4
f 42/17/5 6/18/5 35/19/5 45/20/5
f 12/21/6 43/22/6 48/23/6 31/24/6
f 7/25/7 41/26/7 38/27/7 24/28/7
f 4/29/8 26/30/8 32/31/8 47/32/8
f 27/33/9 3/34/9 46/35/9 34/36/9
f 13/37/10 15/38/10 20/39/10 22/40/10
f 25/41/11 28/42/11 33/43/11 29/44/11
f 10/45/11 8/46/11 23/47/11 19/48/11
f 5/49/12 6/18/12 7/25/12 8/46/12
f 9/50/13 10/45/13 11/10/13 12/21/13
f 17/4/14 18/51/14 19/52/14 20/53/14
f 21/7/15 22/54/15 23/55/15 24/56/15
f 29/44/16 30/57/16 31/24/16 32/31/16
f 33/43/17 34/36/17 35/19/17 36/58/17
f 15/38/18 13/37/18 14/16/18 16/15/18
f 21/7/19 14/6/19 13/37/19 22/40/19
f 16/1/20 17/4/20 20/39/20 15/38/20
f 19/48/21 23/47/21 22/40/21 20/39/21
f 37/8/22 21/7/22 24/56/22 38/59/22
f 9/50/21 5/49/21 8/46/21 10/45/21
f 41/26/23 7/25/23 6/18/23 42/17/23
f 18/11/24 11/10/24 10/45/24 19/48/24
f 7/25/25 24/28/25 23/47/25 8/46/25
f 29/44/21 33/43/21 36/58/21 30/57/21
f 45/20/26 35/19/26 34/36/26 46/35/26
f 5/49/27 36/58/27 35/19/27 6/18/27
f 30/57/28 9/50/28 12/21/28 31/24/28
f 32/31/29 26/30/29 25/41/29 29/44/29
f 27/33/30 34/36/30 33/43/30 28/42/30
f 17/4/31 40/3/31 39/60/31 18/51/31
f 11/10/32 44/9/32 43/22/32 12/21/32
f 31/24/33 48/23/33 47/32/33 32/31/33
f 5/49/10 9/50/10 30/57/10 36/58/10
f 28/42/34 4/61/34 3/34/34 27/33/34
f 25/41/35 26/30/35 4/29/35 28/42/35
f 38/62/36 41/63/36 37/64/36
f 3/65/36 42/66/36 45/67/36
f 1/68/36 41/63/36 42/66/36
f 40/69/36 2/70/36 44/71/36
f 46/72/36 3/65/36 45/67/36
f 48/73/36 43/74/36 4/75/36
f 1/68/36 42/66/36 3/65/36
f 2/70/36 1/68/36 4/75/36
f 47/76/36 48/73/36 4/75/36
f 43/74/36 2/70/36 4/75/36
f 1/68/36 3/65/36 4/75/36
f 44/71/36 2/70/36 43/74/36
f 39/77/36 40/69/36 44/71/36
f 41/63/36 1/68/36 37/64/36
